<mxfile host="app.diagrams.net" modified="2023-11-21T01:03:20.516Z" agent="Mozilla/5.0 (Windows NT 10.0; Win64; x64) AppleWebKit/537.36 (KHTML, like Gecko) Chrome/119.0.0.0 Safari/537.36" etag="r3ldmf9FYsUkK68Lf4Nm" version="22.1.3" type="device">
  <diagram name="Page-1" id="b98fa263-6416-c6ec-5b7d-78bf54ef71d0">
    <mxGraphModel dx="1062" dy="556" grid="1" gridSize="10" guides="1" tooltips="1" connect="1" arrows="1" fold="1" page="1" pageScale="1.5" pageWidth="1169" pageHeight="826" background="none" math="0" shadow="0">
      <root>
        <mxCell id="0" style=";html=1;" />
        <mxCell id="1" style=";html=1;" parent="0" />
        <mxCell id="303ed1de8c2c98b4-4" value="&lt;font style=&quot;vertical-align: inherit;&quot;&gt;&lt;font style=&quot;vertical-align: inherit;&quot;&gt;MM&lt;/font&gt;&lt;/font&gt;" style="whiteSpace=wrap;html=1;rounded=1;shadow=1;strokeWidth=1;fontSize=16;align=center;fillColor=#f5f5f5;strokeColor=#666666;" parent="1" vertex="1">
          <mxGeometry x="680" y="60" width="190" height="40" as="geometry" />
        </mxCell>
        <mxCell id="LTTJOxJgDUu2g_6-ra-F-36" style="edgeStyle=orthogonalEdgeStyle;rounded=0;orthogonalLoop=1;jettySize=auto;html=1;entryX=0.5;entryY=1;entryDx=0;entryDy=0;" edge="1" parent="1" source="303ed1de8c2c98b4-9" target="303ed1de8c2c98b4-4">
          <mxGeometry relative="1" as="geometry">
            <Array as="points">
              <mxPoint x="775" y="150" />
            </Array>
          </mxGeometry>
        </mxCell>
        <mxCell id="303ed1de8c2c98b4-9" value="&lt;font style=&quot;vertical-align: inherit;&quot;&gt;&lt;font style=&quot;vertical-align: inherit;&quot;&gt;FF&lt;/font&gt;&lt;/font&gt;" style="whiteSpace=wrap;html=1;rounded=1;shadow=1;strokeWidth=1;fontSize=16;align=center;fillColor=#f5f5f5;strokeColor=#666666;" parent="1" vertex="1">
          <mxGeometry x="880" y="132.5" width="185" height="40" as="geometry" />
        </mxCell>
        <mxCell id="LTTJOxJgDUu2g_6-ra-F-33" style="edgeStyle=orthogonalEdgeStyle;rounded=0;orthogonalLoop=1;jettySize=auto;html=1;entryX=0.5;entryY=1;entryDx=0;entryDy=0;" edge="1" parent="1" source="303ed1de8c2c98b4-19" target="303ed1de8c2c98b4-9">
          <mxGeometry relative="1" as="geometry">
            <Array as="points">
              <mxPoint x="973" y="240" />
              <mxPoint x="973" y="193" />
            </Array>
          </mxGeometry>
        </mxCell>
        <mxCell id="303ed1de8c2c98b4-19" value="HH" style="whiteSpace=wrap;html=1;rounded=1;shadow=1;strokeWidth=1;fontSize=16;align=center;fillColor=#f5f5f5;strokeColor=#666666;" parent="1" vertex="1">
          <mxGeometry x="1020" y="202.5" width="85" height="65" as="geometry" />
        </mxCell>
        <mxCell id="LTTJOxJgDUu2g_6-ra-F-32" style="edgeStyle=orthogonalEdgeStyle;rounded=0;orthogonalLoop=1;jettySize=auto;html=1;" edge="1" parent="1" source="303ed1de8c2c98b4-20" target="303ed1de8c2c98b4-9">
          <mxGeometry relative="1" as="geometry">
            <Array as="points">
              <mxPoint x="973" y="240" />
            </Array>
          </mxGeometry>
        </mxCell>
        <mxCell id="303ed1de8c2c98b4-20" value="&lt;font style=&quot;vertical-align: inherit;&quot;&gt;&lt;font style=&quot;vertical-align: inherit;&quot;&gt;CC&lt;/font&gt;&lt;/font&gt;" style="whiteSpace=wrap;html=1;rounded=1;shadow=1;strokeWidth=1;fontSize=16;align=center;fillColor=#f5f5f5;strokeColor=#666666;" parent="1" vertex="1">
          <mxGeometry x="850" y="202.5" width="90" height="65" as="geometry" />
        </mxCell>
        <mxCell id="LTTJOxJgDUu2g_6-ra-F-4" value="&lt;font style=&quot;vertical-align: inherit;&quot;&gt;&lt;font style=&quot;vertical-align: inherit;&quot;&gt;AA&lt;/font&gt;&lt;/font&gt;" style="whiteSpace=wrap;html=1;rounded=1;shadow=1;strokeWidth=1;fontSize=16;align=center;fillColor=#f5f5f5;strokeColor=#666666;" vertex="1" parent="1">
          <mxGeometry x="790" y="282.5" width="90" height="65" as="geometry" />
        </mxCell>
        <mxCell id="LTTJOxJgDUu2g_6-ra-F-6" value="&lt;font style=&quot;vertical-align: inherit;&quot;&gt;&lt;font style=&quot;vertical-align: inherit;&quot;&gt;GG&lt;/font&gt;&lt;/font&gt;" style="whiteSpace=wrap;html=1;rounded=1;shadow=1;strokeWidth=1;fontSize=16;align=center;fillColor=#f5f5f5;strokeColor=#666666;" vertex="1" parent="1">
          <mxGeometry x="970" y="287.5" width="90" height="65" as="geometry" />
        </mxCell>
        <mxCell id="LTTJOxJgDUu2g_6-ra-F-7" value="&lt;font style=&quot;vertical-align: inherit;&quot;&gt;&lt;font style=&quot;vertical-align: inherit;&quot;&gt;II&lt;/font&gt;&lt;/font&gt;" style="whiteSpace=wrap;html=1;rounded=1;shadow=1;strokeWidth=1;fontSize=16;align=center;fillColor=#f5f5f5;strokeColor=#666666;" vertex="1" parent="1">
          <mxGeometry x="1080" y="282.5" width="90" height="65" as="geometry" />
        </mxCell>
        <mxCell id="LTTJOxJgDUu2g_6-ra-F-35" style="edgeStyle=orthogonalEdgeStyle;rounded=0;orthogonalLoop=1;jettySize=auto;html=1;" edge="1" parent="1" source="LTTJOxJgDUu2g_6-ra-F-8" target="303ed1de8c2c98b4-4">
          <mxGeometry relative="1" as="geometry">
            <Array as="points">
              <mxPoint x="775" y="150" />
            </Array>
          </mxGeometry>
        </mxCell>
        <mxCell id="LTTJOxJgDUu2g_6-ra-F-8" value="&lt;font style=&quot;vertical-align: inherit;&quot;&gt;&lt;font style=&quot;vertical-align: inherit;&quot;&gt;NN&lt;/font&gt;&lt;/font&gt;" style="whiteSpace=wrap;html=1;rounded=1;shadow=1;strokeWidth=1;fontSize=16;align=center;fillColor=#f5f5f5;strokeColor=#666666;" vertex="1" parent="1">
          <mxGeometry x="509" y="132.5" width="185" height="40" as="geometry" />
        </mxCell>
        <mxCell id="LTTJOxJgDUu2g_6-ra-F-9" value="SS" style="whiteSpace=wrap;html=1;rounded=1;shadow=1;strokeWidth=1;fontSize=16;align=center;fillColor=#f5f5f5;strokeColor=#666666;" vertex="1" parent="1">
          <mxGeometry x="490" y="190" width="85" height="65" as="geometry" />
        </mxCell>
        <mxCell id="LTTJOxJgDUu2g_6-ra-F-28" style="edgeStyle=orthogonalEdgeStyle;rounded=0;orthogonalLoop=1;jettySize=auto;html=1;" edge="1" parent="1" source="LTTJOxJgDUu2g_6-ra-F-18" target="LTTJOxJgDUu2g_6-ra-F-9">
          <mxGeometry relative="1" as="geometry" />
        </mxCell>
        <mxCell id="LTTJOxJgDUu2g_6-ra-F-18" value="PP" style="whiteSpace=wrap;html=1;rounded=1;shadow=1;strokeWidth=1;fontSize=16;align=center;fillColor=#f5f5f5;strokeColor=#666666;" vertex="1" parent="1">
          <mxGeometry x="386" y="267.5" width="85" height="65" as="geometry" />
        </mxCell>
        <mxCell id="LTTJOxJgDUu2g_6-ra-F-19" value="OO" style="whiteSpace=wrap;html=1;rounded=1;shadow=1;strokeWidth=1;fontSize=16;align=center;fillColor=#f5f5f5;strokeColor=#666666;" vertex="1" parent="1">
          <mxGeometry x="340" y="352.5" width="85" height="65" as="geometry" />
        </mxCell>
        <mxCell id="LTTJOxJgDUu2g_6-ra-F-20" value="QQ" style="whiteSpace=wrap;html=1;rounded=1;shadow=1;strokeWidth=1;fontSize=16;align=center;fillColor=#f5f5f5;strokeColor=#666666;" vertex="1" parent="1">
          <mxGeometry x="450" y="352.5" width="85" height="65" as="geometry" />
        </mxCell>
        <mxCell id="LTTJOxJgDUu2g_6-ra-F-29" style="edgeStyle=orthogonalEdgeStyle;rounded=0;orthogonalLoop=1;jettySize=auto;html=1;entryX=0.5;entryY=1;entryDx=0;entryDy=0;" edge="1" parent="1" source="LTTJOxJgDUu2g_6-ra-F-21" target="LTTJOxJgDUu2g_6-ra-F-9">
          <mxGeometry relative="1" as="geometry" />
        </mxCell>
        <mxCell id="LTTJOxJgDUu2g_6-ra-F-21" value="WW" style="whiteSpace=wrap;html=1;rounded=1;shadow=1;strokeWidth=1;fontSize=16;align=center;fillColor=#f5f5f5;strokeColor=#666666;" vertex="1" parent="1">
          <mxGeometry x="580" y="267.5" width="85" height="65" as="geometry" />
        </mxCell>
        <mxCell id="LTTJOxJgDUu2g_6-ra-F-22" value="XX" style="whiteSpace=wrap;html=1;rounded=1;shadow=1;strokeWidth=1;fontSize=16;align=center;fillColor=#f5f5f5;strokeColor=#666666;" vertex="1" parent="1">
          <mxGeometry x="625" y="352.5" width="85" height="65" as="geometry" />
        </mxCell>
      </root>
    </mxGraphModel>
  </diagram>
</mxfile>
